<svg version="1.1" xmlns="http://www.w3.org/2000/svg" viewBox="0 0 464.36114034749403 223.4678531128502" width="1393.083421042482" height="670.4035593385506">
  <!-- svg-source:excalidraw -->
  
  <defs>
    <style class="style-fonts">
      @font-face {
        font-family: "Virgil";
        src: url("https://excalidraw.com/Virgil.woff2");
      }
      @font-face {
        font-family: "Cascadia";
        src: url("https://excalidraw.com/Cascadia.woff2");
      }
    </style>
    
  </defs>
  <rect x="0" y="0" width="464.36114034749403" height="223.4678531128502" fill="#ffffff"></rect><g stroke-linecap="round" transform="translate(277.42493302051685 153.72772352876655) rotate(0 18.62486392915548 17.570626348259907)"><path d="M10.03 2.47 C13.3 0.63, 18.81 -0.07, 22.65 0.83 C26.5 1.72, 30.58 4.83, 33.1 7.85 C35.62 10.88, 37.76 15.52, 37.75 18.98 C37.75 22.43, 35.74 26.04, 33.08 28.58 C30.41 31.11, 25.79 33.51, 21.76 34.18 C17.74 34.85, 12.39 34.49, 8.93 32.57 C5.47 30.65, 2.11 26.33, 0.98 22.67 C-0.15 19.02, 0.28 14.32, 2.17 10.65 C4.05 6.98, 10.39 2.35, 12.28 0.64 C14.17 -1.07, 13.33 0.08, 13.53 0.4 M24.55 0.54 C27.88 1.33, 32.2 4.45, 34.13 7.7 C36.06 10.95, 36.78 16.36, 36.15 20.03 C35.51 23.71, 33.14 27.33, 30.31 29.73 C27.47 32.14, 23.16 34.49, 19.12 34.47 C15.08 34.46, 9.01 32.02, 6.07 29.65 C3.13 27.29, 2.24 23.55, 1.47 20.27 C0.7 16.99, -0.48 13.22, 1.44 9.99 C3.36 6.75, 9.22 2.23, 12.99 0.83 C16.76 -0.57, 22.01 1.28, 24.05 1.58 C26.09 1.88, 25.07 2.39, 25.22 2.63" stroke="none" stroke-width="0" fill="#1e1e1e"></path><path d="M18.94 -0.87 C22.75 -1.12, 28.33 1.94, 31.39 4.66 C34.44 7.37, 36.74 11.71, 37.27 15.41 C37.79 19.12, 36.54 23.79, 34.55 26.86 C32.56 29.93, 28.98 32.5, 25.31 33.82 C21.64 35.14, 16.2 36.21, 12.53 34.78 C8.85 33.34, 5.16 28.46, 3.26 25.22 C1.36 21.97, 0.42 18.87, 1.14 15.31 C1.87 11.76, 4.43 6.51, 7.6 3.88 C10.77 1.26, 17.98 0.17, 20.18 -0.44 C22.39 -1.05, 20.7 -0.14, 20.83 0.23 M16.78 0.94 C20.59 0.97, 26.64 2.66, 29.83 4.81 C33.01 6.96, 35.05 10.38, 35.91 13.83 C36.77 17.29, 36.81 22.13, 34.97 25.54 C33.13 28.95, 28.6 33.07, 24.85 34.31 C21.1 35.55, 16.23 33.94, 12.47 32.97 C8.71 32, 4.53 31.63, 2.3 28.5 C0.06 25.36, -1.41 17.93, -0.93 14.16 C-0.46 10.38, 2.25 8.29, 5.15 5.84 C8.04 3.4, 14.45 0.38, 16.43 -0.53 C18.4 -1.44, 16.9 0.03, 17.02 0.37" stroke="#1e1e1e" stroke-width="2" fill="none"></path></g><g stroke-linecap="round" transform="translate(201.871239722999 18.08248812019997) rotate(0 18.62486392915548 17.570626348259907)"><path d="M11.17 1.24 C14.4 -0.88, 18.28 -1.33, 22.07 -0.4 C25.85 0.53, 31.45 3.51, 33.89 6.82 C36.32 10.13, 37 15.66, 36.68 19.48 C36.35 23.3, 34.59 27.06, 31.95 29.74 C29.3 32.42, 24.77 35.05, 20.81 35.55 C16.85 36.06, 11.38 35.03, 8.17 32.78 C4.97 30.52, 2.64 25.86, 1.58 22.03 C0.51 18.2, -0.08 13.29, 1.77 9.79 C3.61 6.29, 10.38 2.48, 12.66 1.04 C14.94 -0.41, 15.26 0.82, 15.44 1.12 M27.48 0.92 C30.57 2.29, 32.61 6.06, 34 9.5 C35.4 12.95, 36.65 18.05, 35.83 21.57 C35.01 25.08, 32.3 28.36, 29.11 30.58 C25.91 32.8, 20.53 35.01, 16.67 34.88 C12.81 34.75, 8.75 32.39, 5.95 29.8 C3.15 27.2, 0.39 22.96, -0.16 19.32 C-0.7 15.67, 0.56 11.11, 2.68 7.92 C4.81 4.73, 8.42 1.46, 12.6 0.18 C16.79 -1.11, 25.37 0.08, 27.78 0.2 C30.19 0.31, 27.49 0.56, 27.07 0.88" stroke="none" stroke-width="0" fill="#1e1e1e"></path><path d="M20.58 1.01 C24.25 1.08, 29.09 2.1, 31.88 4.62 C34.66 7.13, 36.84 12.14, 37.26 16.09 C37.69 20.03, 36.88 25.21, 34.44 28.27 C32.01 31.32, 26.53 33.72, 22.64 34.42 C18.76 35.12, 14.54 34.19, 11.12 32.45 C7.71 30.72, 3.75 27.44, 2.17 24.01 C0.58 20.58, 0.6 15.25, 1.61 11.87 C2.62 8.48, 4.5 5.73, 8.24 3.71 C11.97 1.69, 21.01 0.05, 24 -0.23 C27 -0.52, 26.2 1.59, 26.2 1.98 M17.11 -0.52 C20.78 -1.05, 27.11 2.16, 30.32 4.27 C33.53 6.39, 35.64 8.81, 36.37 12.16 C37.1 15.52, 36.33 20.59, 34.7 24.39 C33.06 28.19, 29.95 33.16, 26.54 34.97 C23.12 36.79, 17.85 36.63, 14.21 35.27 C10.56 33.92, 6.99 30.29, 4.65 26.84 C2.32 23.39, 0.18 18.36, 0.21 14.59 C0.24 10.83, 2.05 6.9, 4.84 4.27 C7.63 1.65, 14.78 -0.65, 16.96 -1.13 C19.14 -1.61, 18.09 1.13, 17.91 1.4" stroke="#1e1e1e" stroke-width="2" fill="none"></path></g><g stroke-linecap="round" transform="translate(10 164.2700993377224) rotate(0 18.62486392915548 17.570626348259907)"><path d="M9.43 1.95 C12.57 0.11, 17.53 -0.72, 21.47 0.11 C25.42 0.95, 30.49 4.01, 33.1 6.98 C35.7 9.95, 37.17 14.28, 37.09 17.92 C37.02 21.56, 35.25 26.09, 32.66 28.8 C30.08 31.51, 25.61 33.41, 21.6 34.18 C17.58 34.94, 12.17 35.17, 8.57 33.41 C4.97 31.65, 1.32 27.38, -0.01 23.62 C-1.34 19.85, -1.21 14.63, 0.6 10.83 C2.41 7.03, 8.55 2.47, 10.86 0.8 C13.17 -0.88, 14.16 0.55, 14.45 0.76 M14.89 0.97 C18.54 0.26, 25.33 1.28, 28.85 2.91 C32.37 4.54, 35.03 7.31, 36.03 10.73 C37.03 14.16, 36.04 19.87, 34.83 23.44 C33.61 27, 32.23 30.42, 28.72 32.11 C25.21 33.79, 18.01 34.19, 13.78 33.55 C9.55 32.9, 5.5 31.04, 3.34 28.23 C1.18 25.42, 0.4 20.38, 0.82 16.69 C1.24 13.01, 3.34 8.77, 5.84 6.15 C8.34 3.53, 13.95 1.95, 15.82 0.98 C17.69 0.02, 16.92 0.27, 17.07 0.37" stroke="none" stroke-width="0" fill="#1e1e1e"></path><path d="M23.88 0.37 C27.36 1.33, 31.69 5.07, 34.05 8.42 C36.4 11.76, 38.45 16.57, 38.02 20.43 C37.6 24.29, 34.72 29.12, 31.5 31.58 C28.27 34.05, 22.87 35.33, 18.65 35.22 C14.42 35.11, 9.28 33.27, 6.14 30.91 C3 28.55, 0.61 24.57, -0.17 21.05 C-0.95 17.53, -0.66 13.22, 1.44 9.77 C3.54 6.32, 8.43 1.82, 12.42 0.36 C16.41 -1.11, 22.77 0.75, 25.37 0.97 C27.97 1.2, 28.08 1.17, 28.01 1.7 M25.51 2.29 C29.12 3.74, 33.22 6.34, 35.28 9.64 C37.34 12.95, 38.88 18.35, 37.86 22.1 C36.85 25.86, 32.59 30.08, 29.18 32.18 C25.78 34.28, 21.3 34.91, 17.44 34.7 C13.57 34.5, 9.03 33.53, 5.98 30.93 C2.94 28.34, -0.23 23.06, -0.84 19.13 C-1.45 15.2, -0.18 10.37, 2.33 7.37 C4.85 4.38, 10.08 1.91, 14.27 1.14 C18.46 0.36, 25.35 2.35, 27.47 2.73 C29.58 3.1, 27.02 3.47, 26.98 3.41" stroke="#1e1e1e" stroke-width="2" fill="none"></path></g><g stroke-linecap="round" transform="translate(106.2870323884647 26.516388767364447) rotate(0 18.62486392915548 17.570626348259907)"><path d="M26.66 0.99 C30.14 2.44, 34.06 6.69, 35.77 10.15 C37.48 13.6, 37.84 18.03, 36.93 21.74 C36.01 25.44, 33.68 30.15, 30.27 32.4 C26.87 34.64, 20.44 35.68, 16.49 35.22 C12.54 34.76, 9.25 32.2, 6.56 29.61 C3.87 27.02, 0.88 23.47, 0.37 19.69 C-0.14 15.91, 1.34 9.96, 3.49 6.92 C5.64 3.87, 8.81 2.07, 13.28 1.41 C17.75 0.76, 27.27 2.21, 30.34 3 C33.41 3.79, 31.99 5.95, 31.7 6.14 M18.38 -0.14 C22.3 -0.77, 28.36 0.68, 31.38 3.24 C34.4 5.8, 35.77 11.5, 36.52 15.23 C37.26 18.96, 37.67 22.53, 35.85 25.64 C34.03 28.74, 29.35 32.22, 25.58 33.88 C21.81 35.54, 16.98 36.85, 13.23 35.59 C9.48 34.33, 5.46 29.64, 3.09 26.31 C0.72 22.98, -1.26 19.43, -1.01 15.62 C-0.76 11.8, 1.2 5.96, 4.6 3.44 C7.99 0.91, 17.09 0.96, 19.37 0.47 C21.64 -0.02, 18.72 0.44, 18.25 0.52" stroke="none" stroke-width="0" fill="#1e1e1e"></path><path d="M20.36 0.85 C24.19 0.85, 29.42 2.88, 32.18 5.34 C34.93 7.8, 36.73 11.88, 36.9 15.61 C37.07 19.33, 35.41 24.71, 33.21 27.7 C31.01 30.68, 27.32 32.61, 23.69 33.49 C20.06 34.38, 15.2 34.33, 11.43 33.01 C7.66 31.69, 2.76 28.85, 1.1 25.57 C-0.57 22.3, 0.19 17.08, 1.46 13.36 C2.73 9.63, 5.54 5.47, 8.7 3.22 C11.87 0.97, 18.25 0.31, 20.46 -0.13 C22.67 -0.57, 22.02 0.08, 21.98 0.58 M24.33 1.6 C27.6 2.59, 31.78 6.17, 33.97 9.32 C36.16 12.47, 37.97 17.02, 37.46 20.49 C36.95 23.97, 34.2 27.86, 30.92 30.18 C27.63 32.5, 21.77 34.2, 17.76 34.42 C13.76 34.64, 9.76 33.61, 6.87 31.5 C3.99 29.39, 1.1 25.57, 0.45 21.79 C-0.2 18.01, 0.83 12.12, 2.98 8.82 C5.13 5.52, 9.7 3.31, 13.34 1.99 C16.98 0.67, 22.73 1.19, 24.84 0.9 C26.95 0.61, 26.02 0.08, 26 0.26" stroke="#1e1e1e" stroke-width="2" fill="none"></path></g><g stroke-linecap="round" transform="translate(172.17688119443915 161.10738659503568) rotate(0 18.62486392915548 17.570626348259907)"><path d="M10.98 1.06 C14.06 -0.52, 18.74 -0.41, 22.63 0.64 C26.52 1.7, 31.94 4.32, 34.31 7.38 C36.69 10.44, 37.16 15.42, 36.9 19.01 C36.64 22.59, 35.6 26.35, 32.77 28.9 C29.93 31.45, 24.02 33.71, 19.9 34.3 C15.77 34.89, 11.09 34.61, 8 32.44 C4.9 30.27, 2.44 24.92, 1.32 21.28 C0.2 17.65, -0.34 13.97, 1.28 10.63 C2.9 7.29, 9.29 2.92, 11.03 1.24 C12.77 -0.43, 11.41 0.36, 11.73 0.58 M9.13 0.88 C12.58 -0.55, 19.44 0.42, 23.57 1.35 C27.7 2.29, 31.7 3.48, 33.9 6.46 C36.1 9.44, 37.11 15.41, 36.78 19.22 C36.44 23.02, 34.81 26.58, 31.89 29.29 C28.97 31.99, 23.47 35, 19.26 35.47 C15.05 35.93, 9.76 34.48, 6.63 32.07 C3.49 29.66, 1.1 24.67, 0.45 21.01 C-0.2 17.36, 0.81 13.47, 2.72 10.15 C4.64 6.82, 10.68 2.43, 11.92 1.07 C13.17 -0.3, 10.34 1.42, 10.21 1.94" stroke="none" stroke-width="0" fill="#1e1e1e"></path><path d="M10.74 2.33 C14.16 0.96, 20.58 0.24, 24.53 1.05 C28.48 1.86, 32.44 3.94, 34.44 7.19 C36.43 10.45, 36.97 16.85, 36.52 20.59 C36.07 24.34, 34.52 27.15, 31.75 29.66 C28.98 32.17, 23.92 35.48, 19.9 35.63 C15.87 35.78, 10.73 32.83, 7.58 30.58 C4.43 28.33, 1.84 25.51, 1 22.14 C0.16 18.77, 0.65 13.94, 2.56 10.35 C4.47 6.77, 10.46 2.09, 12.45 0.61 C14.45 -0.87, 14.25 1.28, 14.52 1.47 M27.1 2.53 C30.84 4.25, 34.58 8.97, 36.35 12.33 C38.12 15.69, 38.82 19.42, 37.73 22.69 C36.64 25.97, 33.45 30.18, 29.81 31.99 C26.16 33.8, 20.05 34.1, 15.87 33.55 C11.68 33.01, 7.11 31.43, 4.71 28.73 C2.3 26.03, 1.47 20.9, 1.45 17.35 C1.44 13.8, 2.59 10.37, 4.62 7.44 C6.64 4.52, 10.02 0.64, 13.62 -0.22 C17.22 -1.07, 23.69 2.1, 26.22 2.32 C28.74 2.54, 28.81 0.71, 28.77 1.1" stroke="#1e1e1e" stroke-width="2" fill="none"></path></g><g stroke-linecap="round" transform="translate(310.98482934569324 10) rotate(0 18.62486392915548 17.570626348259907)"><path d="M9.79 1.86 C13.12 0.2, 19.71 -0.37, 23.65 0.53 C27.58 1.44, 30.99 4.42, 33.4 7.29 C35.8 10.17, 38.38 14.18, 38.07 17.8 C37.75 21.42, 34.44 26.07, 31.52 29.01 C28.59 31.95, 24.28 35.07, 20.5 35.43 C16.73 35.79, 12.23 33.27, 8.86 31.16 C5.5 29.05, 1.62 26.24, 0.32 22.77 C-0.97 19.3, -0.83 14.12, 1.11 10.35 C3.04 6.58, 9.45 1.82, 11.94 0.14 C14.43 -1.54, 15.95 -0.07, 16.04 0.27 M12.25 1.96 C15.97 0.46, 21.17 -1.08, 24.82 0.07 C28.48 1.21, 32.15 5.53, 34.18 8.81 C36.21 12.09, 37.74 16, 36.99 19.74 C36.24 23.48, 32.92 28.68, 29.67 31.24 C26.42 33.81, 21.32 35.36, 17.48 35.15 C13.65 34.93, 9.34 32.35, 6.66 29.95 C3.98 27.56, 1.89 24.36, 1.39 20.77 C0.89 17.17, 2 11.68, 3.67 8.39 C5.34 5.11, 10.05 2.07, 11.41 1.07 C12.77 0.06, 11.7 2.02, 11.81 2.34" stroke="none" stroke-width="0" fill="#1e1e1e"></path><path d="M10.02 2.38 C13.38 0.15, 18.65 -1.42, 22.42 -0.59 C26.19 0.24, 30.06 4.39, 32.62 7.34 C35.18 10.3, 37.71 13.42, 37.79 17.14 C37.86 20.87, 35.73 26.89, 33.05 29.7 C30.37 32.52, 25.63 33.41, 21.7 34.02 C17.77 34.62, 12.85 34.99, 9.47 33.33 C6.09 31.67, 2.92 27.78, 1.42 24.06 C-0.07 20.34, -1.1 14.68, 0.51 11.01 C2.12 7.34, 8.83 3.86, 11.1 2.06 C13.36 0.27, 13.72 0.27, 14.1 0.25 M18.79 1.19 C22.89 0.77, 28.6 1.42, 31.87 3.51 C35.14 5.6, 37.89 10.19, 38.39 13.73 C38.89 17.28, 37.06 21.47, 34.88 24.77 C32.69 28.07, 28.74 32.08, 25.25 33.53 C21.76 34.98, 17.6 34.51, 13.92 33.48 C10.24 32.46, 5.67 30.59, 3.17 27.37 C0.67 24.15, -1.39 17.99, -1.06 14.17 C-0.73 10.34, 1.69 7.02, 5.17 4.43 C8.65 1.85, 17.72 -0.82, 19.82 -1.34 C21.91 -1.86, 17.98 1.02, 17.75 1.34" stroke="#1e1e1e" stroke-width="2" fill="none"></path></g><g stroke-linecap="round" transform="translate(417.1114124891835 91.52770625592632) rotate(0 18.62486392915548 17.570626348259907)"><path d="M13.17 0.94 C16.75 -0.42, 21.32 0.06, 25.09 1.26 C28.87 2.46, 33.94 4.97, 35.82 8.14 C37.7 11.3, 37.31 16.33, 36.38 20.25 C35.44 24.17, 33.12 29.35, 30.2 31.67 C27.27 33.98, 22.9 34.24, 18.85 34.15 C14.81 34.06, 9.13 33.46, 5.94 31.12 C2.75 28.79, 0.4 24.05, -0.29 20.15 C-0.97 16.25, -0.77 11.06, 1.84 7.71 C4.46 4.36, 13.04 1.3, 15.38 0.03 C17.73 -1.24, 16.08 -0.09, 15.9 0.09 M13.62 -0.21 C17.08 -1.5, 22.16 0.22, 25.78 1.8 C29.4 3.38, 33.71 5.87, 35.33 9.28 C36.96 12.68, 36.73 18.47, 35.53 22.23 C34.33 25.98, 31.19 29.86, 28.11 31.79 C25.04 33.73, 20.65 34.12, 17.09 33.83 C13.53 33.54, 9.35 32.57, 6.74 30.06 C4.13 27.55, 2.12 22.49, 1.43 18.76 C0.75 15.02, 0.67 10.52, 2.64 7.65 C4.6 4.78, 11.48 2.61, 13.21 1.53 C14.94 0.45, 12.82 1.13, 13.01 1.16" stroke="none" stroke-width="0" fill="#1e1e1e"></path><path d="M27.58 1.17 C30.89 2.76, 33.83 8.31, 35.37 11.83 C36.91 15.34, 37.93 18.71, 36.84 22.25 C35.75 25.78, 32.29 31.08, 28.85 33.04 C25.41 35, 20.14 34.53, 16.21 34.03 C12.27 33.52, 7.88 32.51, 5.26 30 C2.63 27.49, 0.8 22.88, 0.46 18.96 C0.13 15.05, 0.94 9.49, 3.25 6.52 C5.56 3.55, 10.09 1.93, 14.31 1.15 C18.52 0.37, 25.97 1.62, 28.55 1.82 C31.13 2.02, 30 2.03, 29.79 2.35 M22.53 -0.31 C26.5 -0.36, 31.38 2.52, 33.84 5.15 C36.29 7.77, 37.31 11.66, 37.24 15.43 C37.17 19.21, 35.62 24.71, 33.43 27.81 C31.23 30.91, 27.89 33.03, 24.08 34.06 C20.27 35.09, 14.56 35.69, 10.56 33.97 C6.57 32.24, 1.94 27.29, 0.11 23.71 C-1.73 20.12, -2.1 16.17, -0.44 12.45 C1.22 8.73, 6.58 3.29, 10.06 1.4 C13.54 -0.49, 18.59 1.49, 20.43 1.14 C22.26 0.78, 21.21 -1.04, 21.06 -0.72" stroke="#1e1e1e" stroke-width="2" fill="none"></path></g><g stroke-linecap="round" transform="translate(374.0633779359464 115.77517061652497) rotate(0 18.624863929155367 17.570626348259907)"><path d="M22.71 1.04 C26.29 1.57, 29.94 3.92, 32.33 6.69 C34.71 9.46, 36.98 14.05, 37 17.64 C37.02 21.23, 34.87 25.47, 32.45 28.22 C30.02 30.97, 26.25 33.46, 22.45 34.15 C18.64 34.84, 13.24 34.12, 9.6 32.35 C5.96 30.59, 2 27.09, 0.59 23.55 C-0.82 20.02, -0.42 14.66, 1.12 11.14 C2.66 7.63, 6.03 4.33, 9.82 2.46 C13.61 0.59, 21.24 0.07, 23.85 -0.1 C26.45 -0.27, 25.66 1.1, 25.43 1.42 M22.18 0.53 C26.14 1.25, 29.93 4.26, 32.67 7.14 C35.4 10.02, 38.72 14.09, 38.59 17.8 C38.46 21.52, 34.78 26.53, 31.9 29.44 C29.02 32.35, 25.05 34.71, 21.3 35.28 C17.54 35.85, 12.72 34.58, 9.38 32.88 C6.04 31.19, 2.69 28.37, 1.23 25.09 C-0.22 21.81, -0.35 16.79, 0.64 13.19 C1.63 9.59, 3.77 5.48, 7.18 3.5 C10.59 1.52, 18.85 1.88, 21.07 1.29 C23.3 0.7, 20.42 -0.37, 20.54 -0.03" stroke="none" stroke-width="0" fill="#1e1e1e"></path><path d="M22.57 0.58 C26.27 1.12, 31 3.55, 33.56 6.6 C36.13 9.65, 38.12 15.07, 37.93 18.89 C37.74 22.7, 35.3 26.76, 32.41 29.48 C29.52 32.2, 24.4 34.54, 20.58 35.19 C16.75 35.84, 12.76 35.5, 9.48 33.38 C6.19 31.26, 2.09 26.25, 0.86 22.48 C-0.36 18.72, 0.55 14.26, 2.13 10.78 C3.7 7.31, 6.57 3.28, 10.3 1.63 C14.04 -0.01, 21.51 0.78, 24.53 0.91 C27.55 1.04, 28.26 2.24, 28.42 2.4 M14.03 -0.95 C17.72 -1.47, 24.02 1.25, 27.6 3.28 C31.18 5.32, 33.92 7.98, 35.48 11.24 C37.05 14.51, 38.1 19.53, 36.98 22.86 C35.86 26.2, 32.27 29.43, 28.75 31.26 C25.23 33.1, 19.65 34.41, 15.85 33.89 C12.05 33.37, 8.67 30.88, 5.97 28.12 C3.27 25.36, -0.16 20.98, -0.36 17.3 C-0.55 13.62, 2.46 8.88, 4.8 6.03 C7.13 3.19, 12.11 1.28, 13.68 0.23 C15.25 -0.82, 13.94 -0.34, 14.21 -0.28" stroke="#1e1e1e" stroke-width="2" fill="none"></path></g><g stroke-linecap="round" transform="translate(224.36164144877193 160.0531490141401) rotate(0 18.62486392915548 17.570626348259907)"><path d="M10.49 1.78 C13.56 -0.02, 18.03 0.08, 21.98 0.94 C25.92 1.81, 31.67 4.01, 34.13 6.96 C36.6 9.92, 37.17 14.82, 36.76 18.68 C36.35 22.54, 34.26 27.52, 31.67 30.14 C29.09 32.75, 25.02 33.87, 21.27 34.38 C17.53 34.89, 12.48 34.97, 9.2 33.19 C5.93 31.41, 2.8 27.38, 1.61 23.7 C0.43 20.03, 0.2 14.96, 2.08 11.15 C3.96 7.33, 10.48 2.43, 12.89 0.8 C15.29 -0.82, 16.43 1.11, 16.5 1.4 M20.01 -0.71 C23.57 -0.4, 29.23 4.05, 31.87 7.03 C34.51 10.01, 35.54 13.77, 35.85 17.18 C36.17 20.59, 35.83 24.83, 33.76 27.51 C31.69 30.19, 27.57 32.48, 23.43 33.25 C19.28 34.02, 12.79 33.45, 8.89 32.13 C4.99 30.82, 1.54 28.42, 0.01 25.38 C-1.52 22.35, -1.46 17.82, -0.3 13.91 C0.86 10.01, 3.29 4.28, 6.95 1.94 C10.61 -0.39, 19.18 -0.07, 21.67 -0.1 C24.16 -0.13, 22.02 1.64, 21.91 1.77" stroke="none" stroke-width="0" fill="#1e1e1e"></path><path d="M22.99 -0.04 C26.69 0.74, 30.81 4.12, 33.01 7.17 C35.22 10.22, 36.4 14.42, 36.23 18.24 C36.05 22.06, 34.47 27.34, 31.96 30.09 C29.45 32.84, 25 34.24, 21.18 34.72 C17.36 35.19, 12.56 34.91, 9.05 32.93 C5.55 30.95, 1.42 26.58, 0.13 22.84 C-1.15 19.1, -0.3 14.11, 1.34 10.49 C2.98 6.87, 6.02 2.83, 10 1.12 C13.98 -0.6, 22.52 0.15, 25.23 0.19 C27.93 0.23, 26.53 0.97, 26.24 1.37 M18.62 0.03 C22.3 -0.38, 26.24 1.65, 29.24 3.82 C32.24 5.98, 35.81 9.21, 36.6 13 C37.39 16.8, 35.99 23.31, 33.97 26.59 C31.94 29.87, 27.85 31.34, 24.45 32.66 C21.04 33.98, 17.11 35.31, 13.51 34.52 C9.92 33.73, 4.85 31.07, 2.87 27.92 C0.88 24.78, 1.24 19.41, 1.6 15.65 C1.97 11.89, 2.45 7.88, 5.03 5.36 C7.62 2.84, 14.99 1.42, 17.12 0.54 C19.26 -0.33, 17.64 -0.24, 17.84 0.11" stroke="#1e1e1e" stroke-width="2" fill="none"></path></g><g stroke-linecap="round" transform="translate(55.68362850547578 171.29834987702657) rotate(0 18.62486392915548 17.570626348259907)"><path d="M24.46 0.89 C28.07 1.66, 31.13 5.64, 33.19 8.54 C35.25 11.44, 36.98 14.58, 36.82 18.29 C36.66 21.99, 35.08 27.79, 32.22 30.74 C29.35 33.69, 23.81 35.9, 19.64 35.97 C15.48 36.04, 10.48 33.65, 7.22 31.17 C3.96 28.69, 1.06 24.52, 0.09 21.1 C-0.87 17.68, -0.31 13.82, 1.42 10.64 C3.16 7.46, 6.79 3.51, 10.49 2.02 C14.2 0.52, 21.32 1.62, 23.65 1.69 C25.99 1.75, 24.48 2.25, 24.51 2.42 M21.6 -0.98 C25.36 -0.39, 30.14 4.42, 32.74 7.57 C35.34 10.73, 37 14.47, 37.18 17.95 C37.36 21.43, 36.72 25.47, 33.84 28.48 C30.96 31.49, 23.91 35.44, 19.91 36.01 C15.91 36.59, 12.85 33.95, 9.84 31.93 C6.82 29.9, 3.28 27.4, 1.81 23.88 C0.34 20.36, -0.5 14.55, 1 10.81 C2.5 7.07, 7.16 3.39, 10.81 1.44 C14.45 -0.51, 21.01 -0.56, 22.89 -0.89 C24.77 -1.22, 22.33 -1.25, 22.11 -0.55" stroke="none" stroke-width="0" fill="#1e1e1e"></path><path d="M10.67 1.5 C14.05 -0.16, 20.12 -0.38, 24.1 0.46 C28.08 1.3, 32.31 3.45, 34.57 6.57 C36.84 9.68, 38.04 15.3, 37.69 19.15 C37.34 23.01, 35.47 26.95, 32.49 29.7 C29.5 32.45, 23.75 35.25, 19.8 35.67 C15.86 36.1, 12.08 34.41, 8.81 32.25 C5.53 30.08, 1.45 26.23, 0.13 22.69 C-1.19 19.15, -1.26 14.74, 0.88 11 C3.02 7.25, 10.48 1.85, 12.96 0.23 C15.44 -1.4, 15.55 0.78, 15.77 1.25 M25.76 1.22 C29.58 2.35, 34.71 5.61, 36.57 9.03 C38.42 12.45, 37.84 17.86, 36.91 21.75 C35.97 25.64, 34.28 30.29, 30.95 32.38 C27.62 34.47, 21.16 34.35, 16.94 34.29 C12.73 34.22, 8.7 34.29, 5.68 31.98 C2.65 29.67, -0.79 24.49, -1.21 20.41 C-1.63 16.34, 0.7 11.02, 3.17 7.51 C5.64 4.01, 10.07 0.59, 13.62 -0.62 C17.16 -1.84, 22.7 -0.3, 24.45 0.24 C26.21 0.77, 24.22 1.89, 24.14 2.58" stroke="#1e1e1e" stroke-width="2" fill="none"></path></g><g stroke-linecap="round" transform="translate(103.47573217274316 178.3266004163304) rotate(0 18.62486392915548 17.570626348259907)"><path d="M18.3 0.26 C22.12 0.18, 27.46 1.83, 30.69 4.15 C33.91 6.46, 37 10.48, 37.65 14.15 C38.29 17.81, 36.61 22.79, 34.55 26.13 C32.5 29.47, 29.15 32.79, 25.32 34.21 C21.49 35.62, 15.42 35.87, 11.57 34.64 C7.71 33.41, 4.08 30.17, 2.19 26.84 C0.3 23.51, -0.48 18.47, 0.22 14.66 C0.93 10.86, 2.68 6.45, 6.42 4 C10.16 1.56, 19.39 0.39, 22.68 0.01 C25.98 -0.38, 26.15 1.22, 26.19 1.7 M21.21 0.41 C25.31 0.81, 30.93 4.12, 33.67 7.07 C36.41 10.02, 37.87 14.32, 37.66 18.1 C37.46 21.88, 35.18 26.84, 32.46 29.73 C29.73 32.63, 25.14 35.24, 21.31 35.47 C17.48 35.69, 12.91 32.93, 9.47 31.09 C6.04 29.25, 1.86 27.88, 0.68 24.44 C-0.5 21, 0.66 14.26, 2.39 10.46 C4.11 6.66, 7.59 3.22, 11.02 1.63 C14.45 0.04, 21.22 1.29, 22.96 0.91 C24.7 0.53, 21.82 -0.63, 21.45 -0.63" stroke="none" stroke-width="0" fill="#1e1e1e"></path><path d="M19.9 -0.51 C23.48 -0.53, 27.5 1.77, 30.47 4.42 C33.44 7.08, 37.11 11.5, 37.72 15.44 C38.33 19.38, 36.5 25.05, 34.13 28.05 C31.76 31.05, 27.19 32.39, 23.5 33.45 C19.81 34.5, 15.65 35.61, 12 34.39 C8.35 33.16, 3.44 29.58, 1.61 26.08 C-0.22 22.57, 0.07 17.01, 1.01 13.36 C1.96 9.71, 3.75 6.29, 7.28 4.18 C10.82 2.08, 19.33 1.2, 22.22 0.75 C25.1 0.29, 24.72 1.27, 24.59 1.45 M26.98 1.54 C30.12 2.59, 32.56 5.03, 34.04 8.49 C35.52 11.95, 36.54 18.38, 35.85 22.29 C35.17 26.19, 33.14 29.87, 29.92 31.92 C26.7 33.97, 20.64 34.67, 16.51 34.59 C12.38 34.5, 8.08 34.05, 5.13 31.41 C2.18 28.77, -0.76 22.7, -1.19 18.75 C-1.63 14.8, 0.34 10.78, 2.51 7.69 C4.68 4.61, 8.15 1.31, 11.84 0.24 C15.53 -0.83, 22.15 0.87, 24.64 1.26 C27.13 1.66, 26.45 2.2, 26.76 2.59" stroke="#1e1e1e" stroke-width="2" fill="none"></path></g><g stroke-linecap="round"><g stroke-opacity="0.5" fill-opacity="0.5" transform="translate(38.46441468418129 171.29834987702645) rotate(0 36.15992305089378 -57.2385742141401)"><path d="M0.92 1.38 C21.55 -39.97, 46.3 -76.06, 71.67 -115.86 M0.65 -0.37 C23.61 -38.37, 46.53 -76.47, 70.83 -113.88" stroke="#1e1e1e" stroke-width="2" fill="none"></path></g></g><mask></mask><g stroke-linecap="round"><g stroke-opacity="0.5" fill-opacity="0.5" transform="translate(119.28929588617689 58.84634124816273) rotate(0 -16.859514354097655 56.845648066299134)"><path d="M-0.42 -0.99 C-10.87 44.91, -25.59 90.1, -33.58 113.49 M0.75 -0.72 C-11.77 39.44, -23.07 79, -34.47 114.68" stroke="#1e1e1e" stroke-width="2" fill="none"></path></g></g><mask></mask><g stroke-linecap="round"><g stroke-opacity="0.5" fill-opacity="0.5" transform="translate(122.80342115582903 57.440691140301965) rotate(0 -0.7405190421642374 59.950537738362925)"><path d="M1.84 -1.85 C0.39 45.07, -2.48 90.97, -3.32 121.75 M0.51 0.61 C-0.1 34.89, -0.98 67.99, -2.83 119.89" stroke="#1e1e1e" stroke-width="2" fill="none"></path></g></g><mask></mask><g stroke-linecap="round"><g stroke-opacity="0.5" fill-opacity="0.5" transform="translate(221.19892870608487 51.11526565492841) rotate(0 -12.974753514977351 63.77272965085808)"><path d="M-0.39 -0.36 C-9.08 42.96, -17.43 86.82, -25.56 125.94 M-0.84 -0.21 C-6.02 28.12, -11.2 56.75, -24.11 127.91" stroke="#1e1e1e" stroke-width="2" fill="none"></path></g></g><mask></mask><g stroke-linecap="round"><g stroke-opacity="0.5" fill-opacity="0.5" transform="translate(226.82152913752793 51.115265654928294) rotate(0 4.565849682205453 60.5113219311188)"><path d="M-1.89 1.51 C1.81 40.4, 8.31 77.92, 9.83 119.82 M-0.65 0.48 C4.59 41.31, 9.62 82.34, 11.02 120.54" stroke="#1e1e1e" stroke-width="2" fill="none"></path></g></g><mask></mask><g stroke-linecap="round"><g stroke-opacity="0.5" fill-opacity="0.5" transform="translate(226.82152913752793 45.49266522348512) rotate(0 32.54476617917953 53.773672562474076)"><path d="M-0.51 1.96 C12.46 21.14, 25.43 43.96, 65.6 107.59 M0.72 -0.42 C16.24 27.58, 32.32 54.79, 63.63 107.97" stroke="#1e1e1e" stroke-width="2" fill="none"></path></g></g><mask></mask><g stroke-linecap="round"><g stroke-opacity="0.5" fill-opacity="0.5" transform="translate(335.05658744280936 39.16723973811156) rotate(0 25.163157030571597 41.88769888438986)"><path d="M0.46 1.03 C16.38 31.5, 36.97 62.66, 47.63 83.94 M0.43 -0.46 C13.32 21.95, 25.74 46.62, 49.9 84.24" stroke="#1e1e1e" stroke-width="2" fill="none"></path></g></g><mask></mask><g stroke-linecap="round"><g stroke-opacity="0.5" fill-opacity="0.5" transform="translate(330.83963711922684 22.299438443782037) rotate(0 49.42381706573883 39.92911200989704)"><path d="M1.64 -0.74 C38.34 31.21, 72.24 61.64, 97.34 78.95 M-0.19 0.83 C28.92 23.4, 58.54 48.38, 99.04 80.6" stroke="#1e1e1e" stroke-width="2" fill="none"></path></g></g><mask></mask></svg>